<mxfile host="app.diagrams.net" agent="Mozilla/5.0 (Windows NT 10.0; Win64; x64) AppleWebKit/537.36 (KHTML, like Gecko) Chrome/134.0.0.0 Safari/537.36" version="26.1.0">
  <diagram name="第 1 页" id="HPD08S-VjeHchQ3noIVq">
    <mxGraphModel dx="2555" dy="915" grid="0" gridSize="10" guides="1" tooltips="1" connect="1" arrows="1" fold="1" page="1" pageScale="1" pageWidth="827" pageHeight="1169" math="0" shadow="0">
      <root>
        <mxCell id="0" />
        <mxCell id="1" parent="0" />
        <mxCell id="LuTX2Ummq0ItfzHySmnt-1" value="&lt;font face=&quot;Times New Roman&quot;&gt;&lt;span style=&quot;font-size: 30px;&quot;&gt;第三方&lt;/span&gt;&lt;/font&gt;" style="rounded=0;whiteSpace=wrap;html=1;fillColor=#e1d5e7;strokeColor=#9673a6;" vertex="1" parent="1">
          <mxGeometry x="-140" y="70" width="140" height="70" as="geometry" />
        </mxCell>
        <mxCell id="LuTX2Ummq0ItfzHySmnt-2" value="&lt;font face=&quot;Times New Roman&quot;&gt;&lt;span style=&quot;font-size: 30px;&quot;&gt;指标函数&lt;/span&gt;&lt;/font&gt;" style="rounded=0;whiteSpace=wrap;html=1;fillColor=#dae8fc;strokeColor=#6c8ebf;" vertex="1" parent="1">
          <mxGeometry x="-30" y="180" width="150" height="50" as="geometry" />
        </mxCell>
        <mxCell id="LuTX2Ummq0ItfzHySmnt-3" value="&lt;font face=&quot;Times New Roman&quot;&gt;&lt;span style=&quot;font-size: 30px;&quot;&gt;节点n&lt;/span&gt;&lt;/font&gt;" style="rounded=0;whiteSpace=wrap;html=1;fillColor=#e1d5e7;strokeColor=#9673a6;" vertex="1" parent="1">
          <mxGeometry x="270" y="310" width="140" height="70" as="geometry" />
        </mxCell>
        <mxCell id="LuTX2Ummq0ItfzHySmnt-4" value="&lt;font face=&quot;Times New Roman&quot;&gt;&lt;span style=&quot;font-size: 30px;&quot;&gt;节点n&lt;/span&gt;&lt;/font&gt;" style="rounded=0;whiteSpace=wrap;html=1;fillColor=#e1d5e7;strokeColor=#9673a6;" vertex="1" parent="1">
          <mxGeometry x="-570" y="310" width="140" height="70" as="geometry" />
        </mxCell>
        <mxCell id="LuTX2Ummq0ItfzHySmnt-5" value="&lt;font face=&quot;Times New Roman&quot;&gt;&lt;span style=&quot;font-size: 30px;&quot;&gt;节点n&lt;/span&gt;&lt;/font&gt;" style="rounded=0;whiteSpace=wrap;html=1;fillColor=#e1d5e7;strokeColor=#9673a6;" vertex="1" parent="1">
          <mxGeometry x="-330" y="310" width="140" height="70" as="geometry" />
        </mxCell>
        <mxCell id="LuTX2Ummq0ItfzHySmnt-6" value="&lt;font style=&quot;font-size: 30px;&quot; face=&quot;Times New Roman&quot;&gt;组群1&lt;/font&gt;" style="rounded=1;whiteSpace=wrap;html=1;fillColor=#CFFFF9;strokeColor=#B3B3B3;" vertex="1" parent="1">
          <mxGeometry x="-440" y="470" width="120" height="70" as="geometry" />
        </mxCell>
        <mxCell id="LuTX2Ummq0ItfzHySmnt-7" value="&lt;font style=&quot;font-size: 30px;&quot; face=&quot;Times New Roman&quot;&gt;组群2&lt;/font&gt;" style="rounded=1;whiteSpace=wrap;html=1;fillColor=#CFFFF9;strokeColor=#B3B3B3;" vertex="1" parent="1">
          <mxGeometry x="-230" y="470" width="120" height="70" as="geometry" />
        </mxCell>
        <mxCell id="LuTX2Ummq0ItfzHySmnt-8" value="&lt;font style=&quot;font-size: 30px;&quot; face=&quot;Times New Roman&quot;&gt;组群n&lt;/font&gt;" style="rounded=1;whiteSpace=wrap;html=1;fillColor=#CFFFF9;strokeColor=#B3B3B3;" vertex="1" parent="1">
          <mxGeometry x="210" y="470" width="120" height="70" as="geometry" />
        </mxCell>
        <mxCell id="LuTX2Ummq0ItfzHySmnt-9" value="" style="endArrow=none;html=1;rounded=0;dashed=1;strokeWidth=3;" edge="1" parent="1">
          <mxGeometry width="50" height="50" relative="1" as="geometry">
            <mxPoint x="-110" y="505" as="sourcePoint" />
            <mxPoint x="200" y="505" as="targetPoint" />
          </mxGeometry>
        </mxCell>
        <mxCell id="LuTX2Ummq0ItfzHySmnt-10" value="" style="endArrow=none;html=1;rounded=0;dashed=1;exitX=1;exitY=0.5;exitDx=0;exitDy=0;strokeWidth=3;" edge="1" parent="1">
          <mxGeometry width="50" height="50" relative="1" as="geometry">
            <mxPoint x="-170" y="350" as="sourcePoint" />
            <mxPoint x="260" y="350" as="targetPoint" />
          </mxGeometry>
        </mxCell>
        <mxCell id="LuTX2Ummq0ItfzHySmnt-11" value="" style="rounded=0;whiteSpace=wrap;html=1;dashed=1;dashPattern=8 8;fillColor=none;strokeWidth=3;strokeColor=#B5739D;" vertex="1" parent="1">
          <mxGeometry x="-579" y="290" width="440" height="130" as="geometry" />
        </mxCell>
        <mxCell id="LuTX2Ummq0ItfzHySmnt-12" value="" style="rounded=0;whiteSpace=wrap;html=1;dashed=1;dashPattern=8 8;fillColor=none;strokeWidth=3;strokeColor=#B5739D;" vertex="1" parent="1">
          <mxGeometry x="140" y="280" width="290" height="130" as="geometry" />
        </mxCell>
        <mxCell id="LuTX2Ummq0ItfzHySmnt-13" value="" style="rounded=0;whiteSpace=wrap;html=1;dashed=1;dashPattern=8 8;fillColor=none;strokeWidth=3;strokeColor=#7EA6E0;" vertex="1" parent="1">
          <mxGeometry x="-370" y="280" width="300" height="130" as="geometry" />
        </mxCell>
        <mxCell id="LuTX2Ummq0ItfzHySmnt-14" value="" style="shape=flexArrow;endArrow=classic;html=1;rounded=0;entryX=0.433;entryY=-0.014;entryDx=0;entryDy=0;entryPerimeter=0;fillColor=#CDA2BE;strokeColor=#B5739D;" edge="1" parent="1" target="LuTX2Ummq0ItfzHySmnt-6">
          <mxGeometry width="50" height="50" relative="1" as="geometry">
            <mxPoint x="-388" y="420" as="sourcePoint" />
            <mxPoint x="-500" y="480" as="targetPoint" />
          </mxGeometry>
        </mxCell>
        <mxCell id="LuTX2Ummq0ItfzHySmnt-15" value="" style="shape=flexArrow;endArrow=classic;html=1;rounded=0;entryX=0.433;entryY=-0.014;entryDx=0;entryDy=0;entryPerimeter=0;strokeColor=#B5739D;fillColor=#CDA2BE;" edge="1" parent="1">
          <mxGeometry width="50" height="50" relative="1" as="geometry">
            <mxPoint x="-170" y="420" as="sourcePoint" />
            <mxPoint x="-170" y="469" as="targetPoint" />
          </mxGeometry>
        </mxCell>
        <mxCell id="LuTX2Ummq0ItfzHySmnt-16" value="" style="shape=flexArrow;endArrow=classic;html=1;rounded=0;entryX=0.433;entryY=-0.014;entryDx=0;entryDy=0;entryPerimeter=0;fillColor=#CDA2BE;strokeColor=#B5739D;" edge="1" parent="1">
          <mxGeometry width="50" height="50" relative="1" as="geometry">
            <mxPoint x="269" y="420" as="sourcePoint" />
            <mxPoint x="269" y="469" as="targetPoint" />
          </mxGeometry>
        </mxCell>
        <mxCell id="LuTX2Ummq0ItfzHySmnt-17" value="" style="endArrow=classic;html=1;rounded=0;exitX=0.5;exitY=1;exitDx=0;exitDy=0;strokeWidth=5;strokeColor=#A680B8;entryX=0.5;entryY=0;entryDx=0;entryDy=0;" edge="1" parent="1" source="LuTX2Ummq0ItfzHySmnt-1" target="LuTX2Ummq0ItfzHySmnt-24">
          <mxGeometry width="50" height="50" relative="1" as="geometry">
            <mxPoint x="-100" y="230" as="sourcePoint" />
            <mxPoint x="-70" y="250" as="targetPoint" />
          </mxGeometry>
        </mxCell>
        <mxCell id="LuTX2Ummq0ItfzHySmnt-18" value="" style="endArrow=classic;html=1;rounded=0;strokeWidth=5;strokeColor=#A680B8;entryX=1;entryY=0.5;entryDx=0;entryDy=0;" edge="1" parent="1" target="LuTX2Ummq0ItfzHySmnt-1">
          <mxGeometry width="50" height="50" relative="1" as="geometry">
            <mxPoint x="330" y="105" as="sourcePoint" />
            <mxPoint x="330" y="250" as="targetPoint" />
          </mxGeometry>
        </mxCell>
        <mxCell id="LuTX2Ummq0ItfzHySmnt-19" value="" style="endArrow=classic;html=1;rounded=0;strokeWidth=5;strokeColor=#A680B8;entryX=-0.043;entryY=0.729;entryDx=0;entryDy=0;entryPerimeter=0;" edge="1" parent="1" target="LuTX2Ummq0ItfzHySmnt-1">
          <mxGeometry width="50" height="50" relative="1" as="geometry">
            <mxPoint x="-260" y="121" as="sourcePoint" />
            <mxPoint x="-560" y="139" as="targetPoint" />
          </mxGeometry>
        </mxCell>
        <mxCell id="LuTX2Ummq0ItfzHySmnt-20" value="" style="endArrow=classic;html=1;rounded=0;strokeWidth=5;strokeColor=#A680B8;entryX=-0.043;entryY=0.729;entryDx=0;entryDy=0;entryPerimeter=0;" edge="1" parent="1">
          <mxGeometry width="50" height="50" relative="1" as="geometry">
            <mxPoint x="-500" y="100" as="sourcePoint" />
            <mxPoint x="-140" y="100" as="targetPoint" />
          </mxGeometry>
        </mxCell>
        <mxCell id="LuTX2Ummq0ItfzHySmnt-21" value="" style="endArrow=none;html=1;rounded=0;exitX=0.5;exitY=0;exitDx=0;exitDy=0;strokeColor=#B5739D;strokeWidth=5;" edge="1" parent="1" source="LuTX2Ummq0ItfzHySmnt-4">
          <mxGeometry width="50" height="50" relative="1" as="geometry">
            <mxPoint x="-500" y="220" as="sourcePoint" />
            <mxPoint x="-500" y="100" as="targetPoint" />
          </mxGeometry>
        </mxCell>
        <mxCell id="LuTX2Ummq0ItfzHySmnt-22" value="" style="endArrow=none;html=1;rounded=0;strokeColor=#B5739D;strokeWidth=5;" edge="1" parent="1" source="LuTX2Ummq0ItfzHySmnt-5">
          <mxGeometry width="50" height="50" relative="1" as="geometry">
            <mxPoint x="-490" y="320" as="sourcePoint" />
            <mxPoint x="-260" y="120" as="targetPoint" />
          </mxGeometry>
        </mxCell>
        <mxCell id="LuTX2Ummq0ItfzHySmnt-23" value="" style="endArrow=none;html=1;rounded=0;exitX=0.429;exitY=0;exitDx=0;exitDy=0;exitPerimeter=0;strokeColor=#B5739D;strokeWidth=5;" edge="1" parent="1">
          <mxGeometry width="50" height="50" relative="1" as="geometry">
            <mxPoint x="330.05999999999995" y="305" as="sourcePoint" />
            <mxPoint x="330" y="105" as="targetPoint" />
          </mxGeometry>
        </mxCell>
        <mxCell id="LuTX2Ummq0ItfzHySmnt-24" value="" style="rounded=1;whiteSpace=wrap;html=1;fillColor=none;gradientColor=default;strokeWidth=2;strokeColor=#ADADAD;" vertex="1" parent="1">
          <mxGeometry x="-620" y="260" width="1100" height="180" as="geometry" />
        </mxCell>
      </root>
    </mxGraphModel>
  </diagram>
</mxfile>
